<svg width="220" height="286" viewBox="0 0 220 286" fill="none" xmlns="http://www.w3.org/2000/svg">
  <defs>
    <linearGradient id="cardFill" x1="28" y1="24" x2="192" y2="270" gradientUnits="userSpaceOnUse">
      <stop stop-color="#006B55"/>
      <stop offset="1" stop-color="#0B5F4A"/>
    </linearGradient>
    <filter id="glow" x="0" y="0" width="220" height="286" filterUnits="userSpaceOnUse">
      <feDropShadow dx="0" dy="0" stdDeviation="14" flood-color="#B6F8C7" flood-opacity="0.35"/>
    </filter>
  </defs>
  <g filter="url(#glow)">
    <rect x="26" y="20" width="168" height="246" rx="42" fill="url(#cardFill)"/>
    <rect x="29.5" y="23.5" width="161" height="239" rx="38.5" stroke="#F8F6EA" stroke-opacity="0.84"/>
    <rect x="33.5" y="27.5" width="153" height="231" rx="34.5" stroke="#F8F6EA" stroke-opacity="0.45"/>
    <path d="M68 94c0-10 6.5-18.2 15.6-21.5-5.2-5.8-8-13.1-8-20.8 10.2 0 19.3 3.7 26.5 10.2 5.9-4.4 13.3-6.8 20.9-6.8 7.7 0 15 2.4 20.9 6.8 7.2-6.5 16.3-10.2 26.5-10.2 0 7.7-2.8 15-8 20.8 9.1 3.3 15.6 11.5 15.6 21.5 0 5.9-2.2 11.4-6 15.5 5.3 4.9 8.4 11.8 8.4 19.3 0 14.8-11.9 26.7-26.7 26.7-3.9 7.8-11.8 12.8-20.8 12.8-4.8 0-9.2-1.4-13-3.8-3.8 2.4-8.3 3.8-13 3.8-9 0-16.9-5-20.9-12.8-14.8 0-26.7-11.9-26.7-26.7 0-7.5 3.1-14.4 8.4-19.3-3.8-4.1-6-9.6-6-15.5Z" stroke="#FFD21F" stroke-width="6" stroke-linejoin="round"/>
    <path d="M100 89c4.5 4.2 10.3 6.4 16.4 6.4 6 0 11.6-2 16.1-5.8 4.4 3.8 10.1 5.8 16.1 5.8" stroke="#FFD21F" stroke-width="6" stroke-linecap="round" stroke-linejoin="round"/>
    <path d="M98 93c0 33.6 11.1 45.4 16.4 55.1 5.3-9.7 16.4-21.5 16.4-55.1" stroke="#FFD21F" stroke-width="6" stroke-linecap="round" stroke-linejoin="round"/>
    <path d="M108.8 135.8 114.4 140l5.6-4.2" stroke="#FFD21F" stroke-width="6" stroke-linecap="round" stroke-linejoin="round"/>
    <path d="M114.4 140v14.8" stroke="#FFD21F" stroke-width="6" stroke-linecap="round"/>
    <text x="110" y="209" text-anchor="middle" fill="#F8F6EA" font-size="30" font-family="Georgia, Times New Roman, serif" font-weight="700">shepherd</text>
  </g>
</svg>
